<svg xmlns="http://www.w3.org/2000/svg" xmlns:xlink="http://www.w3.org/1999/xlink" width="1080" zoomAndPan="magnify" viewBox="0 0 810 1012.49997" height="1350" preserveAspectRatio="xMidYMid meet" version="1.0"><defs><filter x="0%" y="0%" width="100%" height="100%" id="5c3f3ded59"><feColorMatrix values="0 0 0 0 1 0 0 0 0 1 0 0 0 0 1 0 0 0 1 0" color-interpolation-filters="sRGB"/></filter><filter x="0%" y="0%" width="100%" height="100%" id="862835a914"><feColorMatrix values="0 0 0 0 1 0 0 0 0 1 0 0 0 0 1 0.2126 0.7152 0.0722 0 0" color-interpolation-filters="sRGB"/></filter><clipPath id="cbc6c09423"><rect x="0" width="279" y="0" height="123"/></clipPath><clipPath id="7b742e4cb8"><path d="M 357.101562 399.429688 L 503.28125 399.429688 L 503.28125 562.847656 L 357.101562 562.847656 Z M 357.101562 399.429688 " clip-rule="nonzero"/></clipPath><mask id="c39d3ec32a"/><clipPath id="a3b5929d17"><path d="M 356.457031 399.429688 L 502.632812 399.429688 L 502.632812 562.847656 L 356.457031 562.847656 Z M 356.457031 399.429688 " clip-rule="nonzero"/></clipPath><mask id="1d888318e4"/><clipPath id="26e295f482"><path d="M 357.101562 399.429688 L 503.28125 399.429688 L 503.28125 562.847656 L 357.101562 562.847656 Z M 357.101562 399.429688 " clip-rule="nonzero"/></clipPath><mask id="07611c6e60"/><clipPath id="24b2d619b8"><path d="M 356.457031 399.429688 L 502.632812 399.429688 L 502.632812 562.847656 L 356.457031 562.847656 Z M 356.457031 399.429688 " clip-rule="nonzero"/></clipPath><mask id="a17390630f"/><clipPath id="30521f9cca"><path d="M 357.101562 399.429688 L 503.28125 399.429688 L 503.28125 562.847656 L 357.101562 562.847656 Z M 357.101562 399.429688 " clip-rule="nonzero"/></clipPath><mask id="99fb5c7fc7"/><mask id="5356a07376"/><mask id="553f0dedfe"/><clipPath id="8ada209894"><path d="M 162 8 L 229.964844 8 L 229.964844 94 L 162 94 Z M 162 8 " clip-rule="nonzero"/></clipPath><clipPath id="ddf87de049"><rect x="0" width="230" y="0" height="122"/></clipPath><clipPath id="aa11d1d60e"><rect x="0" width="254" y="0" height="66"/></clipPath></defs><g transform="matrix(1, 0, 0, 1, 92, 436)"><g clip-path="url(#cbc6c09423)"><g fill="#010101" fill-opacity="1"><g transform="translate(0.966178, 93.323248)"><g><path d="M 9.109375 0 L 9.109375 -85.03125 L 26 -85.03125 L 55.15625 -40.8125 L 84.1875 -85.03125 L 101.078125 -85.03125 L 101.078125 0 L 82.859375 0 L 82.859375 -52.234375 L 60.375 -18.21875 L 49.8125 -18.21875 L 27.328125 -52.359375 L 27.328125 0 Z M 9.109375 0 "/></g></g></g><g fill="#010101" fill-opacity="1"><g transform="translate(106.770985, 93.323248)"><g><path d="M 54.90625 -85.03125 L 89.53125 0 L 70.578125 0 L 64.390625 -15.796875 L 25.515625 -15.796875 L 19.3125 0 L 0.359375 0 L 34.984375 -85.03125 Z M 31.21875 -31.09375 L 58.671875 -31.09375 L 46.765625 -61.34375 C 46.203125 -62.882812 45.597656 -64.992188 44.953125 -67.671875 C 44.628906 -66.210938 44.320312 -65.015625 44.03125 -64.078125 C 43.75 -63.148438 43.40625 -62.238281 43 -61.34375 Z M 31.21875 -31.09375 "/></g></g></g><g fill="#010101" fill-opacity="1"><g transform="translate(192.289413, 93.323248)"><g><path d="M 9.109375 0 L 9.109375 -85.03125 L 44.09375 -85.03125 C 48.226562 -85.03125 52.300781 -84.582031 56.3125 -83.6875 C 60.320312 -82.800781 63.945312 -81.328125 67.1875 -79.265625 C 70.425781 -77.203125 73.015625 -74.367188 74.953125 -70.765625 C 76.898438 -67.160156 77.875 -62.6875 77.875 -57.34375 C 77.875 -52.476562 77.039062 -48.363281 75.375 -45 C 73.71875 -41.644531 71.492188 -38.929688 68.703125 -36.859375 C 65.910156 -34.796875 62.8125 -33.203125 59.40625 -32.078125 L 84.671875 0 L 63.65625 0 L 40.703125 -29.765625 L 27.328125 -29.765625 L 27.328125 0 Z M 27.328125 -44.953125 L 44.828125 -44.953125 C 48.710938 -44.953125 52.070312 -45.878906 54.90625 -47.734375 C 57.738281 -49.597656 59.15625 -52.675781 59.15625 -56.96875 C 59.15625 -61.34375 57.738281 -64.441406 54.90625 -66.265625 C 52.070312 -68.085938 48.710938 -69 44.828125 -69 L 27.328125 -69 Z M 27.328125 -44.953125 "/></g></g></g></g></g><g transform="matrix(1, 0, 0, 1, 493, 436)"><g clip-path="url(#ddf87de049)"><g fill="#010101" fill-opacity="1"><g transform="translate(1.533474, 93.19)"><g><path d="M 45.5625 1.703125 C 40.863281 1.703125 36.285156 1.113281 31.828125 -0.0625 C 27.367188 -1.238281 23.378906 -3.117188 19.859375 -5.703125 C 16.335938 -8.296875 13.523438 -11.738281 11.421875 -16.03125 C 9.316406 -20.320312 8.265625 -25.628906 8.265625 -31.953125 L 8.265625 -85.03125 L 26.484375 -85.03125 L 26.484375 -32.921875 C 26.484375 -26.273438 28.242188 -21.597656 31.765625 -18.890625 C 35.285156 -16.179688 39.882812 -14.828125 45.5625 -14.828125 C 51.226562 -14.828125 55.820312 -16.179688 59.34375 -18.890625 C 62.863281 -21.597656 64.625 -26.273438 64.625 -32.921875 L 64.625 -85.03125 L 82.859375 -85.03125 L 82.859375 -31.953125 C 82.859375 -25.628906 81.800781 -20.320312 79.6875 -16.03125 C 77.582031 -11.738281 74.769531 -8.296875 71.25 -5.703125 C 67.726562 -3.117188 63.738281 -1.238281 59.28125 -0.0625 C 54.832031 1.113281 50.257812 1.703125 45.5625 1.703125 Z M 45.5625 1.703125 "/></g></g></g><g fill="#010101" fill-opacity="1"><g transform="translate(88.266643, 93.19)"><g><path d="M 9.109375 0 L 9.109375 -85.03125 L 69 -85.03125 L 69 -69 L 27.328125 -69 L 27.328125 -50.90625 L 65.359375 -50.90625 L 65.359375 -34.859375 L 27.328125 -34.859375 L 27.328125 -16.03125 L 69.734375 -16.03125 L 69.734375 0 Z M 9.109375 0 "/></g></g></g><g clip-path="url(#8ada209894)"><g fill="#010101" fill-opacity="1"><g transform="translate(158.965061, 93.19)"><g><path d="M 3.890625 0 L 3.890625 -13.125 L 44.828125 -68.515625 L 5.703125 -68.515625 L 5.703125 -85.03125 L 69 -85.03125 L 69 -71.921875 L 27.8125 -16.515625 L 70.453125 -16.515625 L 70.453125 0 Z M 3.890625 0 "/></g></g></g></g></g></g><g transform="matrix(1, 0, 0, 1, 472, 540)"><g clip-path="url(#aa11d1d60e)"><g fill="#040404" fill-opacity="1"><g transform="translate(0.882135, 49.9558)"><g><path d="M 5.984375 0 L 5.984375 -45.515625 L 20.9375 -45.515625 C 26.3125 -45.515625 30.773438 -44.53125 34.328125 -42.5625 C 37.890625 -40.59375 40.554688 -37.894531 42.328125 -34.46875 C 44.109375 -31.039062 45 -27.140625 45 -22.765625 C 45 -18.378906 44.109375 -14.472656 42.328125 -11.046875 C 40.554688 -7.628906 37.890625 -4.929688 34.328125 -2.953125 C 30.773438 -0.984375 26.3125 0 20.9375 0 Z M 11.453125 -5.203125 L 20.9375 -5.203125 C 27.09375 -5.203125 31.71875 -6.757812 34.8125 -9.875 C 37.914062 -13 39.46875 -17.296875 39.46875 -22.765625 C 39.46875 -28.222656 37.914062 -32.507812 34.8125 -35.625 C 31.71875 -38.75 27.09375 -40.3125 20.9375 -40.3125 L 11.453125 -40.3125 Z M 11.453125 -5.203125 "/></g></g></g><g fill="#040404" fill-opacity="1"><g transform="translate(48.865969, 49.9558)"><g><path d="M 5.984375 0 L 5.984375 -45.515625 L 11.453125 -45.515625 L 11.453125 0 Z M 5.984375 0 "/></g></g></g><g fill="#040404" fill-opacity="1"><g transform="translate(66.290989, 49.9558)"><g><path d="M 27.703125 0.78125 C 24.578125 0.78125 21.539062 0.359375 18.59375 -0.484375 C 15.644531 -1.328125 13 -2.679688 10.65625 -4.546875 C 8.320312 -6.410156 6.457031 -8.835938 5.0625 -11.828125 C 3.675781 -14.828125 2.984375 -18.472656 2.984375 -22.765625 C 2.984375 -26.660156 3.664062 -30.082031 5.03125 -33.03125 C 6.40625 -35.976562 8.25 -38.4375 10.5625 -40.40625 C 12.882812 -42.382812 15.472656 -43.859375 18.328125 -44.828125 C 21.191406 -45.804688 24.144531 -46.296875 27.1875 -46.296875 C 29.613281 -46.296875 31.992188 -46.035156 34.328125 -45.515625 C 36.671875 -44.992188 38.84375 -44.238281 40.84375 -43.25 L 40.84375 -37.78125 C 39.101562 -38.90625 37.117188 -39.738281 34.890625 -40.28125 C 32.660156 -40.820312 30.351562 -41.09375 27.96875 -41.09375 C 25.582031 -41.09375 23.226562 -40.742188 20.90625 -40.046875 C 18.582031 -39.359375 16.488281 -38.273438 14.625 -36.796875 C 12.757812 -35.328125 11.273438 -33.429688 10.171875 -31.109375 C 9.066406 -28.796875 8.515625 -26.015625 8.515625 -22.765625 C 8.515625 -19.335938 9.078125 -16.453125 10.203125 -14.109375 C 11.335938 -11.765625 12.847656 -9.878906 14.734375 -8.453125 C 16.617188 -7.023438 18.71875 -5.992188 21.03125 -5.359375 C 23.351562 -4.734375 25.707031 -4.421875 28.09375 -4.421875 C 29.613281 -4.421875 31.109375 -4.5625 32.578125 -4.84375 C 34.054688 -5.125 35.359375 -5.546875 36.484375 -6.109375 L 36.484375 -24.1875 L 41.9375 -24.1875 L 41.9375 -2.28125 C 39.820312 -1.320312 37.535156 -0.570312 35.078125 -0.03125 C 32.628906 0.507812 30.171875 0.78125 27.703125 0.78125 Z M 27.703125 0.78125 "/></g></g></g><g fill="#040404" fill-opacity="1"><g transform="translate(112.129206, 49.9558)"><g><path d="M 5.984375 0 L 5.984375 -45.515625 L 11.453125 -45.515625 L 11.453125 0 Z M 5.984375 0 "/></g></g></g><g fill="#040404" fill-opacity="1"><g transform="translate(129.554225, 49.9558)"><g><path d="M 16.90625 0 L 16.90625 -40.3125 L 0.90625 -40.3125 L 0.90625 -45.515625 L 38.375 -45.515625 L 38.375 -40.3125 L 22.375 -40.3125 L 22.375 0 Z M 16.90625 0 "/></g></g></g><g fill="#040404" fill-opacity="1"><g transform="translate(168.825544, 49.9558)"><g><path d="M 26.34375 -45.515625 L 46.109375 0 L 40.25 0 L 35.578125 -10.984375 L 11.0625 -10.984375 L 6.375 0 L 0.453125 0 L 20.296875 -45.515625 Z M 13.203125 -16.0625 L 33.421875 -16.0625 L 24 -38.171875 C 23.863281 -38.472656 23.738281 -38.773438 23.625 -39.078125 C 23.519531 -39.378906 23.40625 -39.6875 23.28125 -40 C 23.15625 -39.6875 23.035156 -39.378906 22.921875 -39.078125 C 22.816406 -38.773438 22.695312 -38.472656 22.5625 -38.171875 Z M 13.203125 -16.0625 "/></g></g></g><g fill="#040404" fill-opacity="1"><g transform="translate(215.443993, 49.9558)"><g><path d="M 5.984375 0 L 5.984375 -45.515625 L 11.453125 -45.515625 L 11.453125 -5.203125 L 36.671875 -5.203125 L 36.671875 0 Z M 5.984375 0 "/></g></g></g></g></g></svg>