<svg xmlns="http://www.w3.org/2000/svg" xmlns:xlink="http://www.w3.org/1999/xlink" width="1080" zoomAndPan="magnify" viewBox="0 0 810 1012.49997" height="1350" preserveAspectRatio="xMidYMid meet" version="1.0"><defs><filter x="0%" y="0%" width="100%" height="100%" id="378dbe959c"><feColorMatrix values="0 0 0 0 1 0 0 0 0 1 0 0 0 0 1 0 0 0 1 0" color-interpolation-filters="sRGB"/></filter><filter x="0%" y="0%" width="100%" height="100%" id="53ab8ca9aa"><feColorMatrix values="0 0 0 0 1 0 0 0 0 1 0 0 0 0 1 0.2126 0.7152 0.0722 0 0" color-interpolation-filters="sRGB"/></filter><clipPath id="80f440d644"><rect x="0" width="217" y="0" height="115"/></clipPath><clipPath id="ceab2de8c9"><path d="M 242.878906 115.117188 L 403.929688 115.117188 L 403.929688 296.601562 L 242.878906 296.601562 Z M 242.878906 115.117188 " clip-rule="nonzero"/></clipPath><mask id="c38ef6a137"/><clipPath id="ee08bebaa0"><path d="M 242.160156 115.117188 L 403.214844 115.117188 L 403.214844 296.601562 L 242.160156 296.601562 Z M 242.160156 115.117188 " clip-rule="nonzero"/></clipPath><mask id="4a7faf3c4a"/><clipPath id="74b2f6f97b"><path d="M 242.878906 115.117188 L 403.929688 115.117188 L 403.929688 296.601562 L 242.878906 296.601562 Z M 242.878906 115.117188 " clip-rule="nonzero"/></clipPath><mask id="8ed9d695dd"/><clipPath id="7bf8c63712"><path d="M 242.160156 115.117188 L 403.214844 115.117188 L 403.214844 296.601562 L 242.160156 296.601562 Z M 242.160156 115.117188 " clip-rule="nonzero"/></clipPath><mask id="aded57e61e"/><clipPath id="4fc85d569f"><path d="M 242.878906 115.117188 L 403.929688 115.117188 L 403.929688 296.601562 L 242.878906 296.601562 Z M 242.878906 115.117188 " clip-rule="nonzero"/></clipPath><mask id="f6e5be2c43"/><mask id="1606293ac7"/><mask id="c061eb6d04"/><clipPath id="03581dc9cc"><rect x="0" width="628" y="0" height="396"/></clipPath><clipPath id="fecdc290c2"><rect x="0" width="263" y="0" height="115"/></clipPath><clipPath id="de951e5b17"><rect x="0" width="224" y="0" height="58"/></clipPath></defs><g transform="matrix(1, 0, 0, 1, 487, 461)"><g clip-path="url(#80f440d644)"><g fill="#f9f9f9" fill-opacity="1"><g transform="translate(0.982861, 87.41618)"><g><path d="M 42.890625 1.59375 C 38.472656 1.59375 34.164062 1.039062 29.96875 -0.0625 C 25.769531 -1.164062 22.015625 -2.9375 18.703125 -5.375 C 15.390625 -7.8125 12.738281 -11.050781 10.75 -15.09375 C 8.769531 -19.132812 7.78125 -24.128906 7.78125 -30.078125 L 7.78125 -80.078125 L 24.9375 -80.078125 L 24.9375 -31 C 24.9375 -24.75 26.59375 -20.34375 29.90625 -17.78125 C 33.226562 -15.226562 37.554688 -13.953125 42.890625 -13.953125 C 48.234375 -13.953125 52.5625 -15.226562 55.875 -17.78125 C 59.195312 -20.34375 60.859375 -24.75 60.859375 -31 L 60.859375 -80.078125 L 78.015625 -80.078125 L 78.015625 -30.078125 C 78.015625 -24.128906 77.019531 -19.132812 75.03125 -15.09375 C 73.050781 -11.050781 70.398438 -7.8125 67.078125 -5.375 C 63.765625 -2.9375 60.007812 -1.164062 55.8125 -0.0625 C 51.625 1.039062 47.316406 1.59375 42.890625 1.59375 Z M 42.890625 1.59375 "/></g></g></g><g fill="#f9f9f9" fill-opacity="1"><g transform="translate(82.654314, 87.41618)"><g><path d="M 8.578125 0 L 8.578125 -80.078125 L 64.96875 -80.078125 L 64.96875 -64.96875 L 25.734375 -64.96875 L 25.734375 -47.921875 L 61.546875 -47.921875 L 61.546875 -32.828125 L 25.734375 -32.828125 L 25.734375 -15.09375 L 65.65625 -15.09375 L 65.65625 0 Z M 8.578125 0 "/></g></g></g><g fill="#f9f9f9" fill-opacity="1"><g transform="translate(149.226799, 87.41618)"><g><path d="M 3.65625 0 L 3.65625 -12.359375 L 42.203125 -64.515625 L 5.375 -64.515625 L 5.375 -80.078125 L 64.96875 -80.078125 L 64.96875 -67.71875 L 26.203125 -15.5625 L 66.34375 -15.5625 L 66.34375 0 Z M 3.65625 0 "/></g></g></g></g></g><g transform="matrix(1, 0, 0, 1, 90, 461)"><g clip-path="url(#fecdc290c2)"><g fill="#f9f9f9" fill-opacity="1"><g transform="translate(0.8976, 87.628477)"><g><path d="M 8.59375 0 L 8.59375 -80.1875 L 24.515625 -80.1875 L 52 -38.484375 L 79.375 -80.1875 L 95.296875 -80.1875 L 95.296875 0 L 78.125 0 L 78.125 -49.25 L 56.9375 -17.1875 L 46.96875 -17.1875 L 25.765625 -49.375 L 25.765625 0 Z M 8.59375 0 "/></g></g></g><g fill="#f9f9f9" fill-opacity="1"><g transform="translate(100.664508, 87.628477)"><g><path d="M 51.78125 -80.1875 L 84.421875 0 L 66.546875 0 L 60.703125 -14.890625 L 24.0625 -14.890625 L 18.21875 0 L 0.34375 0 L 32.984375 -80.1875 Z M 29.4375 -29.328125 L 55.328125 -29.328125 L 44.09375 -57.84375 C 43.5625 -59.289062 42.988281 -61.273438 42.375 -63.796875 C 42.070312 -62.421875 41.785156 -61.296875 41.515625 -60.421875 C 41.253906 -59.546875 40.929688 -58.6875 40.546875 -57.84375 Z M 29.4375 -29.328125 "/></g></g></g><g fill="#f9f9f9" fill-opacity="1"><g transform="translate(181.302745, 87.628477)"><g><path d="M 8.59375 0 L 8.59375 -80.1875 L 41.578125 -80.1875 C 45.472656 -80.1875 49.3125 -79.765625 53.09375 -78.921875 C 56.875 -78.078125 60.289062 -76.679688 63.34375 -74.734375 C 66.394531 -72.796875 68.835938 -70.125 70.671875 -66.71875 C 72.503906 -63.320312 73.421875 -59.101562 73.421875 -54.0625 C 73.421875 -49.476562 72.640625 -45.601562 71.078125 -42.4375 C 69.515625 -39.269531 67.414062 -36.710938 64.78125 -34.765625 C 62.144531 -32.816406 59.222656 -31.304688 56.015625 -30.234375 L 79.84375 0 L 60.015625 0 L 38.375 -28.0625 L 25.765625 -28.0625 L 25.765625 0 Z M 25.765625 -42.375 L 42.265625 -42.375 C 45.929688 -42.375 49.097656 -43.253906 51.765625 -45.015625 C 54.441406 -46.773438 55.78125 -49.675781 55.78125 -53.71875 C 55.78125 -57.84375 54.441406 -60.765625 51.765625 -62.484375 C 49.097656 -64.203125 45.929688 -65.0625 42.265625 -65.0625 L 25.765625 -65.0625 Z M 25.765625 -42.375 "/></g></g></g></g></g><g transform="matrix(1, 0, 0, 1, 481, 557)"><g clip-path="url(#de951e5b17)"><g fill="#f9f9f9" fill-opacity="1"><g transform="translate(0.66257, 43.957518)"><g><path d="M 5.265625 0 L 5.265625 -40.015625 L 18.40625 -40.015625 C 23.125 -40.015625 27.046875 -39.144531 30.171875 -37.40625 C 33.296875 -35.675781 35.640625 -33.304688 37.203125 -30.296875 C 38.765625 -27.285156 39.546875 -23.851562 39.546875 -20 C 39.546875 -16.15625 38.765625 -12.726562 37.203125 -9.71875 C 35.640625 -6.707031 33.296875 -4.332031 30.171875 -2.59375 C 27.046875 -0.863281 23.125 0 18.40625 0 Z M 10.0625 -4.578125 L 18.40625 -4.578125 C 23.8125 -4.578125 27.875 -5.945312 30.59375 -8.6875 C 33.320312 -11.425781 34.6875 -15.195312 34.6875 -20 C 34.6875 -24.800781 33.320312 -28.570312 30.59375 -31.3125 C 27.875 -34.0625 23.8125 -35.4375 18.40625 -35.4375 L 10.0625 -35.4375 Z M 10.0625 -4.578125 "/></g></g></g><g fill="#f9f9f9" fill-opacity="1"><g transform="translate(42.839854, 43.957518)"><g><path d="M 5.265625 0 L 5.265625 -40.015625 L 10.0625 -40.015625 L 10.0625 0 Z M 5.265625 0 "/></g></g></g><g fill="#f9f9f9" fill-opacity="1"><g transform="translate(58.156262, 43.957518)"><g><path d="M 24.34375 0.6875 C 21.601562 0.6875 18.9375 0.316406 16.34375 -0.421875 C 13.75 -1.171875 11.421875 -2.363281 9.359375 -4 C 7.304688 -5.632812 5.671875 -7.765625 4.453125 -10.390625 C 3.234375 -13.023438 2.625 -16.226562 2.625 -20 C 2.625 -23.4375 3.222656 -26.445312 4.421875 -29.03125 C 5.628906 -31.625 7.25 -33.785156 9.28125 -35.515625 C 11.320312 -37.253906 13.597656 -38.550781 16.109375 -39.40625 C 18.628906 -40.257812 21.222656 -40.6875 23.890625 -40.6875 C 26.023438 -40.6875 28.117188 -40.457031 30.171875 -40 C 32.234375 -39.550781 34.140625 -38.890625 35.890625 -38.015625 L 35.890625 -33.203125 C 34.367188 -34.191406 32.625 -34.925781 30.65625 -35.40625 C 28.695312 -35.882812 26.671875 -36.125 24.578125 -36.125 C 22.484375 -36.125 20.414062 -35.816406 18.375 -35.203125 C 16.332031 -34.597656 14.492188 -33.644531 12.859375 -32.34375 C 11.222656 -31.050781 9.914062 -29.382812 8.9375 -27.34375 C 7.96875 -25.3125 7.484375 -22.863281 7.484375 -20 C 7.484375 -16.988281 7.976562 -14.453125 8.96875 -12.390625 C 9.957031 -10.335938 11.28125 -8.679688 12.9375 -7.421875 C 14.601562 -6.171875 16.453125 -5.269531 18.484375 -4.71875 C 20.523438 -4.164062 22.59375 -3.890625 24.6875 -3.890625 C 26.019531 -3.890625 27.332031 -4.007812 28.625 -4.25 C 29.925781 -4.5 31.070312 -4.875 32.0625 -5.375 L 32.0625 -21.265625 L 36.859375 -21.265625 L 36.859375 -2 C 34.992188 -1.164062 32.984375 -0.507812 30.828125 -0.03125 C 28.679688 0.445312 26.519531 0.6875 24.34375 0.6875 Z M 24.34375 0.6875 "/></g></g></g><g fill="#f9f9f9" fill-opacity="1"><g transform="translate(98.447571, 43.957518)"><g><path d="M 5.265625 0 L 5.265625 -40.015625 L 10.0625 -40.015625 L 10.0625 0 Z M 5.265625 0 "/></g></g></g><g fill="#f9f9f9" fill-opacity="1"><g transform="translate(113.76398, 43.957518)"><g><path d="M 14.859375 0 L 14.859375 -35.4375 L 0.796875 -35.4375 L 0.796875 -40.015625 L 33.71875 -40.015625 L 33.71875 -35.4375 L 19.65625 -35.4375 L 19.65625 0 Z M 14.859375 0 "/></g></g></g><g fill="#f9f9f9" fill-opacity="1"><g transform="translate(148.283054, 43.957518)"><g><path d="M 23.140625 -40.015625 L 40.53125 0 L 35.375 0 L 31.265625 -9.65625 L 9.71875 -9.65625 L 5.59375 0 L 0.40625 0 L 17.828125 -40.015625 Z M 11.609375 -14.125 L 29.375 -14.125 L 21.09375 -33.546875 C 20.976562 -33.816406 20.875 -34.082031 20.78125 -34.34375 C 20.6875 -34.613281 20.582031 -34.882812 20.46875 -35.15625 C 20.351562 -34.882812 20.242188 -34.613281 20.140625 -34.34375 C 20.046875 -34.082031 19.941406 -33.816406 19.828125 -33.546875 Z M 11.609375 -14.125 "/></g></g></g><g fill="#f9f9f9" fill-opacity="1"><g transform="translate(189.260179, 43.957518)"><g><path d="M 5.265625 0 L 5.265625 -40.015625 L 10.0625 -40.015625 L 10.0625 -4.578125 L 32.234375 -4.578125 L 32.234375 0 Z M 5.265625 0 "/></g></g></g></g></g></svg>